name C:\Users\u0101727\Documents\MyRepositories\upper-imu-dc\Results\main_tracking\Case_20\kinematics.mot
datacolumns 10
datarows 52
range 0.70000000 1.21000000
endheader 
time	clav_prot	clav_elev	scapula_abduction	scapula_elevation	scapula_upward_rot	scapula_winging	plane_elv	shoulder_elv	axial_rot	
          0.70000000	        -23.40791109	         16.22123648	        -14.79326806	          8.18206419	         25.57343796	          0.63804472	         37.08701260	          2.87776969	        -13.72327979	
          0.71000000	        -23.31263531	         15.71300223	        -14.30705901	          7.81690548	         25.52512234	          0.55403006	         37.31490679	          3.28647764	        -14.26602732	
          0.72000000	        -23.17166746	         15.22964110	        -13.75569850	          7.47564718	         25.47231666	          0.48315052	         37.57958926	          3.71663242	        -14.74328976	
          0.73000000	        -23.04211430	         14.76066223	        -13.24593651	          7.14538994	         25.41707628	          0.42009301	         37.91087357	          4.16357686	        -15.13235636	
          0.74000000	        -22.92379972	         14.30290305	        -12.77896854	          6.82518234	         25.35350565	          0.36615253	         38.31523040	          4.63323349	        -15.41832741	
          0.75000000	        -22.81476046	         13.85507671	        -12.35318091	          6.51532383	         25.27678185	          0.32273043	         38.78633094	          5.12985205	        -15.60168467	
          0.76000000	        -22.71237180	         13.41673362	        -11.96577498	          6.21659979	         25.18277460	          0.29108927	         39.31766386	          5.65712888	        -15.68300137	
          0.77000000	        -22.61581294	         12.98865154	        -11.61508008	          5.92965398	         25.07118330	          0.27113954	         39.90165835	          6.21496993	        -15.66914224	
          0.78000000	        -22.52524419	         12.57242784	        -11.29970417	          5.65504988	         24.94432860	          0.26189815	         40.53275980	          6.80099634	        -15.56838700	
          0.79000000	        -22.44197046	         12.17031033	        -11.01857107	          5.39308880	         24.80736890	          0.26141064	         41.20677115	          7.41034087	        -15.39220229	
          0.80000000	        -22.36781219	         11.78470491	        -10.77051023	          5.14380606	         24.66697815	          0.26720240	         41.92061052	          8.03700763	        -15.15332244	
          0.81000000	        -22.30469683	         11.41763689	        -10.55404153	          4.90685103	         24.53027871	          0.27661589	         42.67071953	          8.67483236	        -14.86548811	
          0.82000000	        -22.25408606	         11.07011713	        -10.36706455	          4.68138549	         24.40344136	          0.28725748	         43.45159981	          9.31873643	        -14.54159347	
          0.83000000	        -22.21660758	         10.74173864	        -10.20659221	          4.46599366	         24.29089451	          0.29725659	         44.25450159	          9.96534413	        -14.19291751	
          0.84000000	        -22.19187095	         10.43061786	        -10.06864514	          4.25872313	         24.19501176	          0.30539325	         45.06724596	         10.61318556	        -13.82804095	
          0.85000000	        -22.17851627	         10.13377145	         -9.94835304	          4.05729469	         24.11638789	          0.31105484	         45.87527253	         11.26242338	        -13.45257958	
          0.86000000	        -22.17449121	          9.84781786	         -9.84034628	          3.85945023	         24.05448894	          0.31407430	         46.66369362	         11.91432432	        -13.06971841	
          0.87000000	        -22.17744195	          9.56976103	         -9.73931044	          3.66333431	         24.00838946	          0.31452236	         47.41974273	         12.57072220	        -12.68139001	
          0.88000000	        -22.18512550	          9.29761955	         -9.64055241	          3.46778327	         23.97741167	          0.31250132	         48.13482433	         13.23358687	        -12.29040965	
          0.89000000	        -22.19577951	          9.03071833	         -9.54040436	          3.27239871	         23.96162981	          0.30795206	         48.80550223	         13.90464903	        -11.90369472	
          0.90000000	        -22.20831549	          8.76953784	         -9.43628690	          3.07736969	         23.96210040	          0.30053382	         49.43318762	         14.58515293	        -11.53525692	
          0.91000000	        -22.22231551	          8.51523220	         -9.32647139	          2.88312901	         23.98081164	          0.28960123	         50.02275521	         15.27574310	        -11.20828722	
          0.92000000	        -22.23785652	          8.26906622	         -9.20951023	          2.68996129	         24.02063342	          0.27420517	         50.58074971	         15.97624981	        -10.95594739	
          0.93000000	        -22.25530463	          8.03204436	         -9.08366293	          2.49773789	         24.08535027	          0.25309399	         51.11374412	         16.68534989	        -10.82033783	
          0.94000000	        -22.27516340	          7.80474476	         -8.94650765	          2.30579764	         24.17971896	          0.22472248	         51.62720899	         17.40019711	        -10.84922190	
          0.95000000	        -22.29796050	          7.58731169	         -8.79469261	          2.11294526	         24.30952993	          0.18726554	         52.12481050	         18.11603978	        -11.09063712	
          0.96000000	        -22.32408910	          7.37955683	         -8.62368260	          1.91754836	         24.48162164	          0.13864627	         52.60817184	         18.82589794	        -11.58537830	
          0.97000000	        -22.35353065	          7.18124119	         -8.42747002	          1.71781460	         24.70374496	          0.07660297	         53.07715900	         19.52049275	        -12.35874446	
          0.98000000	        -22.38576019	          6.99252829	         -8.19880467	          1.51222981	         24.98424602	         -0.00120757	         53.53077874	         20.18854178	        -13.41204226	
          0.99000000	        -22.41855389	          6.81449490	         -7.92783307	          1.30022084	         25.33123366	         -0.09697267	         53.96830661	         20.81787314	        -14.71743107	
          1.00000000	        -22.45257771	          6.64970794	         -7.61145272	          1.08261008	         25.75130613	         -0.21242145	         54.39056975	         21.39718657	        -16.21468891	
          1.01000000	        -22.46395497	          6.50029504	         -7.20511052	          0.86237695	         26.24703435	         -0.34792467	         54.79981250	         21.91942009	        -17.81829423	
          1.02000000	        -22.81089524	          6.39739562	         -7.36579968	          0.64273423	         26.81330509	         -0.50676181	         55.20529036	         22.38479395	        -19.42116517	
          1.03000000	        -21.61440756	          6.18866152	         -4.68065003	          0.42842314	         27.42591577	         -0.67235480	         55.61964425	         22.82000085	        -20.92451528	
          1.04000000	        -21.00289468	          6.07033215	         -3.09523522	          0.25230646	         28.01296227	         -0.84993147	         56.05961038	         23.28996817	        -22.23369625	
          1.05000000	        -23.40584191	          6.26215452	         -7.05748338	          0.13596990	         28.57702370	         -1.00337425	         56.49579414	         23.80329791	        -23.31111086	
          1.06000000	        -22.46581561	          6.22851624	         -4.90324126	          0.04354688	         29.18812887	         -1.15229683	         56.94556237	         24.28465499	        -24.15549450	
          1.07000000	        -23.36880854	          6.35401854	         -6.04969314	         -0.05573081	         29.87071202	         -1.36243584	         57.46783979	         24.68703725	        -24.71428548	
          1.08000000	        -22.34484212	          6.32027662	         -3.64436410	         -0.16267282	         30.60364577	         -1.54037565	         58.01687055	         25.06284032	        -25.06688687	
          1.09000000	        -22.42826285	          6.36432892	         -3.22488521	         -0.28164806	         31.36610514	         -1.74376066	         58.60945808	         25.40909679	        -25.21585177	
          1.10000000	        -22.25746841	          6.37978467	         -2.34449560	         -0.40077364	         32.11537717	         -1.93819176	         59.19851563	         25.77670994	        -25.25101835	
          1.11000000	        -22.32127818	          6.41579570	         -1.93873505	         -0.50398700	         32.80164869	         -2.11448263	         59.75288441	         26.21263121	        -25.20678633	
          1.12000000	        -22.24266059	          6.45177727	         -1.36474891	         -0.57574853	         33.37214257	         -2.26039493	         60.25100331	         26.76830697	        -25.14189769	
          1.13000000	        -22.22385323	          6.51759413	         -1.03217762	         -0.59981308	         33.78359665	         -2.36886223	         60.68157822	         27.48394976	        -25.07721617	
          1.14000000	        -22.18871913	          6.63852595	         -0.84284160	         -0.54853508	         34.00018725	         -2.43588860	         61.03364449	         28.39334679	        -25.03317285	
          1.15000000	        -22.34863838	          6.84613473	         -1.15676313	         -0.41950124	         34.06456246	         -2.47400688	         61.29760589	         29.44564938	        -25.01843608	
          1.16000000	        -22.13409775	          6.97191851	         -0.70529272	         -0.34116145	         34.20578873	         -2.52330006	         61.50840241	         30.38912067	        -25.05123464	
          1.17000000	        -22.16634127	          7.04153155	         -0.58435663	         -0.33763146	         34.46449053	         -2.59308518	         61.69803764	         31.17801110	        -25.10554371	
          1.18000000	        -22.16074118	          7.07141689	         -0.32357743	         -0.37221030	         34.79405593	         -2.67554440	         61.87007495	         31.86264910	        -25.17352057	
          1.19000000	        -22.14886348	          7.09289075	         -0.02507034	         -0.41661063	         35.15198270	         -2.76316129	         62.02721364	         32.48764288	        -25.23850590	
          1.20000000	        -22.92925120	          7.18811473	         -1.18388500	         -0.45292333	         35.50626975	         -2.86043738	         62.18323063	         33.08380245	        -25.31612346	
          1.21000000	        -21.99570525	          7.15234575	          0.78932270	         -0.48137066	         35.85204199	         -2.93545947	         62.33424189	         33.66627638	        -25.43529743	
